<svg width="25" height="25" viewBox="0 0 25 25" fill="none" xmlns="http://www.w3.org/2000/svg">
<mask id="path-1-inside-1_441_9571" fill="white">
<path d="M5.4247 23.4999C4.37736 23.4999 3.37292 23.0839 2.63234 22.3433C1.89176 21.6027 1.47571 20.5983 1.47571 19.5509V10.619C1.47557 10.5017 1.50721 10.3866 1.56725 10.2859C1.62729 10.1852 1.7135 10.1026 1.81671 10.047C1.91384 9.99103 2.02363 9.96074 2.13571 9.95898C2.25986 9.95932 2.38157 9.99355 2.48771 10.058L3.3457 10.608V10.135C3.40491 9.30044 3.60578 8.48209 3.9397 7.71498L4.7757 5.80099C5.05072 5.16548 5.19297 4.48046 5.1937 3.78799V2.82H4.9517C4.86554 2.82001 4.78024 2.80286 4.70077 2.76956C4.6213 2.73626 4.54927 2.68747 4.48885 2.62604C4.42844 2.5646 4.38087 2.49175 4.34891 2.41174C4.31695 2.33172 4.30124 2.24615 4.3027 2.16C4.30124 2.07385 4.31695 1.98827 4.34891 1.90826C4.38087 1.82824 4.42844 1.75539 4.48885 1.69396C4.54927 1.63252 4.6213 1.58373 4.70077 1.55043C4.78024 1.51713 4.86554 1.49999 4.9517 1.5H11.5517C11.7267 1.5 11.8946 1.56954 12.0184 1.69331C12.1421 1.81708 12.2117 1.98496 12.2117 2.16C12.2117 2.33504 12.1421 2.50291 12.0184 2.62669C11.8946 2.75046 11.7267 2.82 11.5517 2.82H11.2547V3.78799C11.2537 4.48178 11.4 5.16787 11.6837 5.80099L12.4757 7.59398L12.7287 6.99998C13.1005 6.19382 13.6941 5.51019 14.4402 5.02904C15.1863 4.54789 16.0539 4.28912 16.9417 4.28299C17.3868 4.28797 17.8284 4.36219 18.2507 4.50299L18.4377 4.55799L18.5587 4.39299C19.0456 3.6366 19.7304 3.02794 20.5387 2.633C20.9228 2.47818 21.3346 2.40333 21.7487 2.413C22.2133 2.41272 22.6759 2.47563 23.1236 2.6C23.2061 2.61941 23.2819 2.6601 23.3437 2.71801C23.4055 2.77591 23.451 2.84901 23.4756 2.93C23.5077 2.99501 23.5243 3.06652 23.5243 3.139C23.5243 3.21147 23.5077 3.28298 23.4756 3.34799C23.0649 4.13388 22.4081 4.76363 21.6056 5.14099C21.2893 5.27295 20.9616 5.37604 20.6267 5.44899L20.1647 5.54799L20.4837 5.91099C21.2142 6.76526 21.609 7.85605 21.5947 8.97998C21.5872 9.3739 21.5318 9.76545 21.4297 10.146L21.2757 10.828L22.4856 10.058C22.5918 9.99355 22.7135 9.95932 22.8376 9.95898C22.9497 9.96074 23.0595 9.99103 23.1566 10.047C23.2599 10.1026 23.3461 10.1852 23.4061 10.2859C23.4661 10.3866 23.4978 10.5017 23.4976 10.619V19.5509C23.4977 20.0714 23.3948 20.5867 23.195 21.0673C22.9951 21.5478 22.7023 21.9841 22.3332 22.3511C21.9642 22.7181 21.5263 23.0085 21.0446 23.2057C20.563 23.4028 20.0471 23.5028 19.5267 23.4999H5.4247ZM15.9517 12.5V19.5949C15.9546 20.2932 16.234 20.9619 16.7288 21.4546C17.2236 21.9473 17.8934 22.2239 18.5917 22.2239H19.5267C20.2239 22.2239 20.8926 21.947 21.3856 21.4539C21.8787 20.9609 22.1556 20.2922 22.1556 19.5949V11.895L20.6047 12.874C20.4994 12.9418 20.3778 12.9798 20.2527 12.984C20.1325 12.9797 20.0154 12.9457 19.9117 12.885L17.6567 11.4L15.9517 12.5ZM2.7517 19.5949C2.75743 19.9402 2.83112 20.281 2.96857 20.5977C3.10601 20.9145 3.30451 21.2011 3.55273 21.4411C3.80095 21.6812 4.09402 21.87 4.41522 21.9968C4.73642 22.1235 5.07944 22.1858 5.4247 22.1799H15.5997L15.3137 21.7399C14.8736 21.0909 14.6397 20.3241 14.6427 19.5399V12.742L12.4757 11.4L10.2757 12.786C10.1742 12.8517 10.0556 12.8862 9.93468 12.885C9.81012 12.8877 9.68758 12.8532 9.58269 12.786L7.29469 11.4L5.0947 12.786C4.98928 12.852 4.8671 12.8864 4.7427 12.885C4.62178 12.8862 4.50319 12.8517 4.4017 12.786L2.7957 11.807L2.7517 19.5949ZM6.55769 3.78799C6.55608 4.66319 6.37253 5.5285 6.0187 6.32899L5.1827 8.24298C4.84595 8.99353 4.67343 9.80735 4.6767 10.63V11.477L6.97569 10.058C7.08152 9.99277 7.20339 9.95824 7.32769 9.95824C7.452 9.95824 7.57386 9.99277 7.67969 10.058L9.87968 11.455L11.8047 10.3V10.091C11.763 9.45577 11.6181 8.83161 11.3757 8.24298L10.4737 6.32899C10.1199 5.5285 9.9363 4.66319 9.93468 3.78799V2.82H6.55769V3.78799ZM16.9417 5.63599C16.3232 5.62089 15.713 5.77994 15.1806 6.09499C14.6482 6.41003 14.2151 6.86838 13.9306 7.41774C13.6462 7.9671 13.5219 8.58535 13.572 9.20195C13.622 9.81855 13.8444 10.4087 14.2137 10.905L15.0387 11.411L17.2387 10.014C17.3401 9.94822 17.4587 9.91379 17.5797 9.91498C17.7041 9.91356 17.8262 9.94792 17.9317 10.014L19.4937 10.993L19.6477 10.762C19.9917 10.262 20.1912 9.67688 20.2242 9.0709C20.2572 8.46492 20.1225 7.86157 19.8348 7.32719C19.5472 6.79282 19.1177 6.34811 18.5937 6.04198C18.0697 5.73585 17.4714 5.58014 16.8647 5.59199L16.9417 5.63599Z"/>
</mask>
<path d="M5.4247 23.4999C4.37736 23.4999 3.37292 23.0839 2.63234 22.3433C1.89176 21.6027 1.47571 20.5983 1.47571 19.5509V10.619C1.47557 10.5017 1.50721 10.3866 1.56725 10.2859C1.62729 10.1852 1.7135 10.1026 1.81671 10.047C1.91384 9.99103 2.02363 9.96074 2.13571 9.95898C2.25986 9.95932 2.38157 9.99355 2.48771 10.058L3.3457 10.608V10.135C3.40491 9.30044 3.60578 8.48209 3.9397 7.71498L4.7757 5.80099C5.05072 5.16548 5.19297 4.48046 5.1937 3.78799V2.82H4.9517C4.86554 2.82001 4.78024 2.80286 4.70077 2.76956C4.6213 2.73626 4.54927 2.68747 4.48885 2.62604C4.42844 2.5646 4.38087 2.49175 4.34891 2.41174C4.31695 2.33172 4.30124 2.24615 4.3027 2.16C4.30124 2.07385 4.31695 1.98827 4.34891 1.90826C4.38087 1.82824 4.42844 1.75539 4.48885 1.69396C4.54927 1.63252 4.6213 1.58373 4.70077 1.55043C4.78024 1.51713 4.86554 1.49999 4.9517 1.5H11.5517C11.7267 1.5 11.8946 1.56954 12.0184 1.69331C12.1421 1.81708 12.2117 1.98496 12.2117 2.16C12.2117 2.33504 12.1421 2.50291 12.0184 2.62669C11.8946 2.75046 11.7267 2.82 11.5517 2.82H11.2547V3.78799C11.2537 4.48178 11.4 5.16787 11.6837 5.80099L12.4757 7.59398L12.7287 6.99998C13.1005 6.19382 13.6941 5.51019 14.4402 5.02904C15.1863 4.54789 16.0539 4.28912 16.9417 4.28299C17.3868 4.28797 17.8284 4.36219 18.2507 4.50299L18.4377 4.55799L18.5587 4.39299C19.0456 3.6366 19.7304 3.02794 20.5387 2.633C20.9228 2.47818 21.3346 2.40333 21.7487 2.413C22.2133 2.41272 22.6759 2.47563 23.1236 2.6C23.2061 2.61941 23.2819 2.6601 23.3437 2.71801C23.4055 2.77591 23.451 2.84901 23.4756 2.93C23.5077 2.99501 23.5243 3.06652 23.5243 3.139C23.5243 3.21147 23.5077 3.28298 23.4756 3.34799C23.0649 4.13388 22.4081 4.76363 21.6056 5.14099C21.2893 5.27295 20.9616 5.37604 20.6267 5.44899L20.1647 5.54799L20.4837 5.91099C21.2142 6.76526 21.609 7.85605 21.5947 8.97998C21.5872 9.3739 21.5318 9.76545 21.4297 10.146L21.2757 10.828L22.4856 10.058C22.5918 9.99355 22.7135 9.95932 22.8376 9.95898C22.9497 9.96074 23.0595 9.99103 23.1566 10.047C23.2599 10.1026 23.3461 10.1852 23.4061 10.2859C23.4661 10.3866 23.4978 10.5017 23.4976 10.619V19.5509C23.4977 20.0714 23.3948 20.5867 23.195 21.0673C22.9951 21.5478 22.7023 21.9841 22.3332 22.3511C21.9642 22.7181 21.5263 23.0085 21.0446 23.2057C20.563 23.4028 20.0471 23.5028 19.5267 23.4999H5.4247ZM15.9517 12.5V19.5949C15.9546 20.2932 16.234 20.9619 16.7288 21.4546C17.2236 21.9473 17.8934 22.2239 18.5917 22.2239H19.5267C20.2239 22.2239 20.8926 21.947 21.3856 21.4539C21.8787 20.9609 22.1556 20.2922 22.1556 19.5949V11.895L20.6047 12.874C20.4994 12.9418 20.3778 12.9798 20.2527 12.984C20.1325 12.9797 20.0154 12.9457 19.9117 12.885L17.6567 11.4L15.9517 12.5ZM2.7517 19.5949C2.75743 19.9402 2.83112 20.281 2.96857 20.5977C3.10601 20.9145 3.30451 21.2011 3.55273 21.4411C3.80095 21.6812 4.09402 21.87 4.41522 21.9968C4.73642 22.1235 5.07944 22.1858 5.4247 22.1799H15.5997L15.3137 21.7399C14.8736 21.0909 14.6397 20.3241 14.6427 19.5399V12.742L12.4757 11.4L10.2757 12.786C10.1742 12.8517 10.0556 12.8862 9.93468 12.885C9.81012 12.8877 9.68758 12.8532 9.58269 12.786L7.29469 11.4L5.0947 12.786C4.98928 12.852 4.8671 12.8864 4.7427 12.885C4.62178 12.8862 4.50319 12.8517 4.4017 12.786L2.7957 11.807L2.7517 19.5949ZM6.55769 3.78799C6.55608 4.66319 6.37253 5.5285 6.0187 6.32899L5.1827 8.24298C4.84595 8.99353 4.67343 9.80735 4.6767 10.63V11.477L6.97569 10.058C7.08152 9.99277 7.20339 9.95824 7.32769 9.95824C7.452 9.95824 7.57386 9.99277 7.67969 10.058L9.87968 11.455L11.8047 10.3V10.091C11.763 9.45577 11.6181 8.83161 11.3757 8.24298L10.4737 6.32899C10.1199 5.5285 9.9363 4.66319 9.93468 3.78799V2.82H6.55769V3.78799ZM16.9417 5.63599C16.3232 5.62089 15.713 5.77994 15.1806 6.09499C14.6482 6.41003 14.2151 6.86838 13.9306 7.41774C13.6462 7.9671 13.5219 8.58535 13.572 9.20195C13.622 9.81855 13.8444 10.4087 14.2137 10.905L15.0387 11.411L17.2387 10.014C17.3401 9.94822 17.4587 9.91379 17.5797 9.91498C17.7041 9.91356 17.8262 9.94792 17.9317 10.014L19.4937 10.993L19.6477 10.762C19.9917 10.262 20.1912 9.67688 20.2242 9.0709C20.2572 8.46492 20.1225 7.86157 19.8348 7.32719C19.5472 6.79282 19.1177 6.34811 18.5937 6.04198C18.0697 5.73585 17.4714 5.58014 16.8647 5.59199L16.9417 5.63599Z" stroke="#4E4949" stroke-width="2.19999" mask="url(#path-1-inside-1_441_9571)"/>
</svg>
