<svg width="25" height="25" viewBox="0 0 25 25" fill="none" xmlns="http://www.w3.org/2000/svg">
<path d="M12.8599 11.37C12.7599 11.36 12.6399 11.36 12.5299 11.37C10.1499 11.29 8.25995 9.34 8.25995 6.94C8.25995 4.49 10.2399 2.5 12.6999 2.5C15.1499 2.5 17.1399 4.49 17.1399 6.94C17.1299 9.34 15.2399 11.29 12.8599 11.37Z" stroke="#4E4949" stroke-width="1.5" stroke-linecap="round" stroke-linejoin="round"/>
<path d="M7.85992 15.06C5.43992 16.68 5.43992 19.32 7.85992 20.93C10.6099 22.77 15.1199 22.77 17.8699 20.93C20.2899 19.31 20.2899 16.67 17.8699 15.06C15.1299 13.23 10.6199 13.23 7.85992 15.06Z" stroke="#4E4949" stroke-width="1.5" stroke-linecap="round" stroke-linejoin="round"/>
</svg>
