<svg width="25" height="24" viewBox="0 0 25 24" fill="none" xmlns="http://www.w3.org/2000/svg">
<path d="M3.91003 11.22V15.71C3.91003 20.2 5.71003 22 10.2 22H15.59C20.08 22 21.88 20.2 21.88 15.71V11.22" stroke="#624602" stroke-width="1.5" stroke-linecap="round" stroke-linejoin="round"/>
<path d="M12.9 12C14.73 12 16.08 10.51 15.9 8.68L15.24 2H10.57L9.90001 8.68C9.72001 10.51 11.07 12 12.9 12Z" stroke="#624602" stroke-width="1.5" stroke-linecap="round" stroke-linejoin="round"/>
<path d="M19.2101 12C21.2301 12 22.7101 10.36 22.5101 8.35L22.2301 5.6C21.8701 3 20.8701 2 18.2501 2H15.2001L15.9001 9.01C16.0701 10.66 17.5601 12 19.2101 12Z" stroke="#624602" stroke-width="1.5" stroke-linecap="round" stroke-linejoin="round"/>
<path d="M6.54003 12C8.19003 12 9.68003 10.66 9.84003 9.01L10.06 6.8L10.54 2H7.49003C4.87003 2 3.87003 3 3.51003 5.6L3.24003 8.35C3.04003 10.36 4.52003 12 6.54003 12Z" stroke="#624602" stroke-width="1.5" stroke-linecap="round" stroke-linejoin="round"/>
<path d="M12.9 17C11.23 17 10.4 17.83 10.4 19.5V22H15.4V19.5C15.4 17.83 14.57 17 12.9 17Z" stroke="#624602" stroke-width="1.5" stroke-linecap="round" stroke-linejoin="round"/>
</svg>
