<svg width="25" height="25" viewBox="0 0 25 25" fill="none" xmlns="http://www.w3.org/2000/svg">
<path d="M2.09998 2.5H3.83998C4.91998 2.5 5.76998 3.43 5.67998 4.5L4.84998 14.46C4.70998 16.09 5.99997 17.49 7.63997 17.49H18.29C19.73 17.49 20.99 16.31 21.1 14.88L21.64 7.38C21.76 5.72 20.5 4.37 18.83 4.37H5.91998" stroke="#4E4949" stroke-width="1.5" stroke-miterlimit="10" stroke-linecap="round" stroke-linejoin="round"/>
<path d="M16.35 22.5C17.0403 22.5 17.6 21.9404 17.6 21.25C17.6 20.5596 17.0403 20 16.35 20C15.6596 20 15.1 20.5596 15.1 21.25C15.1 21.9404 15.6596 22.5 16.35 22.5Z" stroke="#4E4949" stroke-width="1.5" stroke-miterlimit="10" stroke-linecap="round" stroke-linejoin="round"/>
<path d="M8.34998 22.5C9.04033 22.5 9.59998 21.9404 9.59998 21.25C9.59998 20.5596 9.04033 20 8.34998 20C7.65962 20 7.09998 20.5596 7.09998 21.25C7.09998 21.9404 7.65962 22.5 8.34998 22.5Z" stroke="#4E4949" stroke-width="1.5" stroke-miterlimit="10" stroke-linecap="round" stroke-linejoin="round"/>
<path d="M9.09998 8.5H21.1" stroke="#4E4949" stroke-width="1.5" stroke-miterlimit="10" stroke-linecap="round" stroke-linejoin="round"/>
</svg>
