<svg width="32" height="33" viewBox="0 0 32 33" fill="none" xmlns="http://www.w3.org/2000/svg">
<path d="M11.7503 3.02112L6.92358 7.86112" stroke="#AC7B04" stroke-width="2" stroke-miterlimit="10" stroke-linecap="round" stroke-linejoin="round"/>
<path d="M20.2573 3.02112L25.084 7.86112" stroke="#AC7B04" stroke-width="2" stroke-miterlimit="10" stroke-linecap="round" stroke-linejoin="round"/>
<path d="M2.67017 10.8213C2.67017 8.35466 3.99017 8.15466 5.63017 8.15466H26.3768C28.0168 8.15466 29.3368 8.35466 29.3368 10.8213C29.3368 13.688 28.0168 13.488 26.3768 13.488H5.63017C3.99017 13.488 2.67017 13.688 2.67017 10.8213Z" stroke="#AC7B04" stroke-width="2"/>
<path d="M13.0162 19.0211V23.7545" stroke="#AC7B04" stroke-width="2" stroke-linecap="round"/>
<path d="M19.1501 19.0211V23.7545" stroke="#AC7B04" stroke-width="2" stroke-linecap="round"/>
<path d="M4.67017 13.6879L6.55017 25.2079C6.97683 27.7945 8.0035 29.6879 11.8168 29.6879H19.8568C24.0035 29.6879 24.6168 27.8745 25.0968 25.3679L27.3368 13.6879" stroke="#AC7B04" stroke-width="2" stroke-linecap="round"/>
</svg>
