<svg width="32" height="33" viewBox="0 0 32 33" fill="none" xmlns="http://www.w3.org/2000/svg">
<path d="M16.0021 19.0211H17.3354C18.8021 19.0211 20.0021 17.8211 20.0021 16.3545V3.02112H8.00208C6.00208 3.02112 4.25542 4.12777 3.34875 5.75444" stroke="#AC7B04" stroke-width="2" stroke-linecap="round" stroke-linejoin="round"/>
<path d="M2.67017 23.0211C2.67017 25.2345 4.45683 27.0211 6.67017 27.0211H8.0035C8.0035 25.5545 9.2035 24.3545 10.6702 24.3545C12.1368 24.3545 13.3368 25.5545 13.3368 27.0211H18.6702C18.6702 25.5545 19.8702 24.3545 21.3368 24.3545C22.8035 24.3545 24.0035 25.5545 24.0035 27.0211H25.3368C27.5502 27.0211 29.3368 25.2345 29.3368 23.0211V19.0211H25.3368C24.6035 19.0211 24.0035 18.4211 24.0035 17.6878V13.6878C24.0035 12.9545 24.6035 12.3545 25.3368 12.3545H27.0568L24.7769 8.3678C24.2969 7.54113 23.4169 7.02112 22.4569 7.02112H20.0035V16.3545C20.0035 17.8211 18.8035 19.0211 17.3368 19.0211H16.0035" stroke="#AC7B04" stroke-width="2" stroke-linecap="round" stroke-linejoin="round"/>
<path d="M10.6695 29.6878C12.1422 29.6878 13.3361 28.4939 13.3361 27.0212C13.3361 25.5484 12.1422 24.3545 10.6695 24.3545C9.19671 24.3545 8.00281 25.5484 8.00281 27.0212C8.00281 28.4939 9.19671 29.6878 10.6695 29.6878Z" stroke="#AC7B04" stroke-width="2" stroke-linecap="round" stroke-linejoin="round"/>
<path d="M21.3368 29.6878C22.8096 29.6878 24.0035 28.4939 24.0035 27.0212C24.0035 25.5484 22.8096 24.3545 21.3368 24.3545C19.8641 24.3545 18.6702 25.5484 18.6702 27.0212C18.6702 28.4939 19.8641 29.6878 21.3368 29.6878Z" stroke="#AC7B04" stroke-width="2" stroke-linecap="round" stroke-linejoin="round"/>
<path d="M29.3361 16.3545V19.0212H25.3361C24.6028 19.0212 24.0028 18.4212 24.0028 17.6878V13.6878C24.0028 12.9545 24.6028 12.3545 25.3361 12.3545H27.0561L29.3361 16.3545Z" stroke="#AC7B04" stroke-width="2" stroke-linecap="round" stroke-linejoin="round"/>
<path d="M2.67017 11.0211H10.6702" stroke="#AC7B04" stroke-width="2" stroke-linecap="round" stroke-linejoin="round"/>
<path d="M2.67017 15.0211H8.0035" stroke="#AC7B04" stroke-width="2" stroke-linecap="round" stroke-linejoin="round"/>
<path d="M2.67017 19.0211H5.33683" stroke="#AC7B04" stroke-width="2" stroke-linecap="round" stroke-linejoin="round"/>
</svg>
