<svg width="13" height="12" viewBox="0 0 13 12" fill="none" xmlns="http://www.w3.org/2000/svg">
<path d="M4.5 1V2.5" stroke="#405774" stroke-miterlimit="10" stroke-linecap="round" stroke-linejoin="round"/>
<path d="M8.50012 1V2.5" stroke="#405774" stroke-miterlimit="10" stroke-linecap="round" stroke-linejoin="round"/>
<path d="M2.25 4.54492H10.75" stroke="#405774" stroke-miterlimit="10" stroke-linecap="round" stroke-linejoin="round"/>
<path d="M10.1053 7.88489L8.33527 9.6549C8.26527 9.7249 8.20026 9.8549 8.18526 9.9499L8.09026 10.6249C8.05526 10.8699 8.22526 11.0399 8.47026 11.0049L9.14527 10.9099C9.24027 10.8949 9.37527 10.8299 9.44027 10.7599L11.2103 8.9899C11.5153 8.6849 11.6603 8.3299 11.2103 7.8799C10.7653 7.4349 10.4103 7.57989 10.1053 7.88489Z" stroke="#405774" stroke-miterlimit="10" stroke-linecap="round" stroke-linejoin="round"/>
<path d="M9.84998 8.13989C9.99998 8.67989 10.42 9.09989 10.96 9.24989" stroke="#405774" stroke-miterlimit="10" stroke-linecap="round" stroke-linejoin="round"/>
<path d="M6.5 11H4.5C2.75 11 2 10 2 8.5V4.25C2 2.75 2.75 1.75 4.5 1.75H8.5C10.25 1.75 11 2.75 11 4.25V6" stroke="#405774" stroke-miterlimit="10" stroke-linecap="round" stroke-linejoin="round"/>
<path d="M6.49774 6.84961H6.50223" stroke="#405774" stroke-width="0.75" stroke-linecap="round" stroke-linejoin="round"/>
<path d="M4.64716 6.84961H4.65165" stroke="#405774" stroke-width="0.75" stroke-linecap="round" stroke-linejoin="round"/>
<path d="M4.64716 8.34961H4.65165" stroke="#405774" stroke-width="0.75" stroke-linecap="round" stroke-linejoin="round"/>
</svg>
