<svg width="11" height="12" viewBox="0 0 11 12" fill="none" xmlns="http://www.w3.org/2000/svg">
<g clip-path="url(#clip0_197_7537)">
<path d="M9.27112 9.51955L7.65291 9.4656C7.58371 9.464 7.51551 9.4824 7.45651 9.5186C7.3975 9.5548 7.3502 9.60726 7.32028 9.66968L6.63164 11.1306C6.60773 11.1795 6.57302 11.2223 6.53012 11.2559C6.48723 11.2894 6.43728 11.3128 6.38404 11.3242C6.33079 11.3357 6.27565 11.3348 6.22277 11.3219C6.16989 11.3089 6.12064 11.284 6.07876 11.2492L4.84443 10.1938C4.79297 10.1505 4.73039 10.1225 4.6638 10.1129C4.59722 10.1034 4.52929 10.1127 4.46774 10.1399L3.02934 10.7862C2.97938 10.8077 2.92522 10.8175 2.87091 10.815C2.81661 10.8125 2.76357 10.7977 2.7158 10.7717C2.66804 10.7458 2.62678 10.7093 2.59513 10.6651C2.56348 10.6209 2.54228 10.5701 2.5331 10.5165L2.27867 8.98823C2.26752 8.92384 2.23903 8.8637 2.19627 8.81428C2.1535 8.76486 2.09807 8.72803 2.03594 8.70775L0.497752 8.21689C0.445879 8.19954 0.398648 8.17058 0.359653 8.13223C0.320658 8.09387 0.290921 8.04712 0.272716 7.99554C0.254512 7.94397 0.248318 7.88891 0.254598 7.83458C0.260878 7.78024 0.279463 7.72805 0.308953 7.68199L1.13784 6.42968C1.1752 6.37163 1.19506 6.30406 1.19506 6.23504C1.19506 6.16601 1.1752 6.09845 1.13784 6.04041L0.218164 4.61998C0.188039 4.57249 0.169473 4.51858 0.163962 4.46261C0.158452 4.40663 0.166142 4.35015 0.186426 4.29769C0.206711 4.24523 0.239015 4.19826 0.280749 4.16055C0.322483 4.12284 0.372485 4.09546 0.426727 4.08058L1.94963 3.68052C2.02153 3.66119 2.08566 3.62003 2.13316 3.5627C2.18067 3.50537 2.20921 3.43472 2.21484 3.36048L2.32812 1.68204C2.3329 1.62573 2.35087 1.57134 2.3806 1.52328C2.41032 1.47522 2.45096 1.43484 2.49921 1.40542C2.54745 1.376 2.60196 1.35836 2.6583 1.35394C2.71464 1.34952 2.77122 1.35844 2.82347 1.37997L4.36885 2.04434C4.43743 2.07312 4.51325 2.07993 4.58587 2.06383C4.65848 2.04773 4.72432 2.00951 4.7743 1.95444L5.82524 0.785734C5.86316 0.744693 5.91012 0.713054 5.9624 0.693326C6.01468 0.673598 6.07084 0.666322 6.12642 0.67208C6.182 0.677839 6.23548 0.696474 6.2826 0.726501C6.32973 0.756529 6.36921 0.797122 6.39791 0.845066L7.24206 2.31134C7.27708 2.37089 7.32852 2.4191 7.39022 2.45019C7.45192 2.48128 7.52128 2.49394 7.58998 2.48665L9.08232 2.32123C9.13676 2.31597 9.19169 2.32319 9.24292 2.34235C9.29415 2.36152 9.34034 2.39212 9.37796 2.43182C9.41559 2.47152 9.44366 2.51928 9.46004 2.57147C9.47642 2.62366 9.48068 2.67889 9.47249 2.73297L9.20728 4.32601C9.19705 4.39042 9.20452 4.45641 9.22891 4.5169C9.2533 4.5774 9.29368 4.63012 9.34573 4.66943L10.5918 5.5945C10.6347 5.62736 10.6697 5.66949 10.6942 5.71776C10.7186 5.76603 10.7318 5.81919 10.7329 5.87329C10.7339 5.92738 10.7227 5.98101 10.7002 6.03018C10.6776 6.07935 10.6442 6.12279 10.6025 6.15728L9.3709 7.14618C9.31867 7.18852 9.27936 7.24467 9.25743 7.30823C9.2355 7.3718 9.23183 7.44024 9.24684 7.50578L9.62352 9.08533C9.63465 9.13777 9.6339 9.19204 9.62135 9.24416C9.6088 9.29628 9.58475 9.34493 9.55096 9.38655C9.51718 9.42818 9.47452 9.46173 9.4261 9.48474C9.37768 9.50775 9.32473 9.51964 9.27112 9.51955Z" fill="#D09504"/>
<path d="M4.16675 6.33366L5.08341 7.33366L7.16675 4.66699" stroke="#FAFAFA" stroke-width="0.666667" stroke-linecap="round" stroke-linejoin="round"/>
</g>
<defs>
<clipPath id="clip0_197_7537">
<rect width="10.575" height="10.6667" fill="white" transform="translate(0.166626 0.666748)"/>
</clipPath>
</defs>
</svg>
