<svg width="11" height="12" viewBox="0 0 11 12" fill="none" xmlns="http://www.w3.org/2000/svg">
<path d="M2.01997 7.46669L4.0333 9.48002C4.85997 10.3067 6.20219 10.3067 7.0333 9.48002L8.98441 7.52891C9.81108 6.70224 9.81108 5.36002 8.98441 4.52891L6.96663 2.52002C6.54441 2.0978 5.96219 1.87113 5.36663 1.90224L3.14441 2.00891C2.25552 2.04891 1.54885 2.75558 1.50441 3.64002L1.39774 5.86224C1.37108 6.46224 1.59774 7.04447 2.01997 7.46669Z" fill="#DF194C"/>
<path d="M4.38882 6.00005C5.00247 6.00005 5.49993 5.50259 5.49993 4.88894C5.49993 4.27529 5.00247 3.77783 4.38882 3.77783C3.77517 3.77783 3.27771 4.27529 3.27771 4.88894C3.27771 5.50259 3.77517 6.00005 4.38882 6.00005Z" fill="#F7BCCB"/>
</svg>
