<svg width="24" height="24" viewBox="0 0 24 24" fill="none" xmlns="http://www.w3.org/2000/svg">
<path d="M12.1602 10.87C12.0602 10.86 11.9402 10.86 11.8302 10.87C9.45018 10.79 7.56018 8.84 7.56018 6.44C7.56018 3.99 9.54018 2 12.0002 2C14.4502 2 16.4402 3.99 16.4402 6.44C16.4302 8.84 14.5402 10.79 12.1602 10.87Z" stroke="#1A232F" stroke-width="1.5" stroke-linecap="round" stroke-linejoin="round"/>
<path d="M7.16009 14.56C4.74009 16.18 4.74009 18.82 7.16009 20.43C9.91009 22.27 14.4201 22.27 17.1701 20.43C19.5901 18.81 19.5901 16.17 17.1701 14.56C14.4301 12.73 9.92009 12.73 7.16009 14.56Z" stroke="#1A232F" stroke-width="1.5" stroke-linecap="round" stroke-linejoin="round"/>
</svg>
