<svg width="24" height="24" viewBox="0 0 24 24" fill="none" xmlns="http://www.w3.org/2000/svg">
<path d="M2.00012 2H3.74013C4.82013 2 5.67012 2.93 5.58012 4L4.75012 13.96C4.61012 15.59 5.90012 16.99 7.54012 16.99H18.1901C19.6301 16.99 20.8901 15.81 21.0001 14.38L21.5401 6.88C21.6601 5.22 20.4001 3.87 18.7301 3.87H5.82013" stroke="#1A232F" stroke-width="1.5" stroke-miterlimit="10" stroke-linecap="round" stroke-linejoin="round"/>
<path d="M16.2501 22C16.9405 22 17.5001 21.4404 17.5001 20.75C17.5001 20.0596 16.9405 19.5 16.2501 19.5C15.5598 19.5 15.0001 20.0596 15.0001 20.75C15.0001 21.4404 15.5598 22 16.2501 22Z" stroke="#1A232F" stroke-width="1.5" stroke-miterlimit="10" stroke-linecap="round" stroke-linejoin="round"/>
<path d="M8.25012 22C8.94048 22 9.50012 21.4404 9.50012 20.75C9.50012 20.0596 8.94048 19.5 8.25012 19.5C7.55977 19.5 7.00012 20.0596 7.00012 20.75C7.00012 21.4404 7.55977 22 8.25012 22Z" stroke="#1A232F" stroke-width="1.5" stroke-miterlimit="10" stroke-linecap="round" stroke-linejoin="round"/>
<path d="M9.00012 8H21.0001" stroke="#1A232F" stroke-width="1.5" stroke-miterlimit="10" stroke-linecap="round" stroke-linejoin="round"/>
</svg>
