<svg width="15" height="17" viewBox="0 0 15 17" fill="none" xmlns="http://www.w3.org/2000/svg">
<g clip-path="url(#clip0_298_5870)">
<path d="M8.77717 9.97084C8.77717 9.97084 8.88878 9.85924 9.11199 9.63602C9.33521 9.41281 9.44681 8.98572 9.44681 8.35477C9.44681 7.72382 9.2236 7.18513 8.77717 6.7387C8.33074 6.29227 7.79205 6.06906 7.1611 6.06906C6.53015 6.06906 5.99146 6.29227 5.54503 6.7387C5.0986 7.18513 4.87538 7.72382 4.87538 8.35477C4.87538 8.98572 5.0986 9.52441 5.54503 9.97084C5.99146 10.4173 6.53015 10.6405 7.1611 10.6405C7.79205 10.6405 8.33074 10.4173 8.77717 9.97084ZM9.65217 5.8637C9.65217 5.8637 9.8233 6.03483 10.1656 6.37709C10.5078 6.71935 10.679 7.37858 10.679 8.35477C10.679 9.33096 10.3367 10.1613 9.65217 10.8458C8.96765 11.5304 8.13729 11.8726 7.1611 11.8726C6.18491 11.8726 5.35455 11.5304 4.67003 10.8458C3.9855 10.1613 3.64324 9.33096 3.64324 8.35477C3.64324 7.37858 3.9855 6.54822 4.67003 5.8637C5.35455 5.17918 6.18491 4.83691 7.1611 4.83691C8.13729 4.83691 8.96765 5.17918 9.65217 5.8637ZM11.4022 4.1137C11.4022 4.1137 11.4423 4.15388 11.5227 4.23423C11.6031 4.31459 11.6432 4.46787 11.6432 4.69406C11.6432 4.92025 11.5629 5.1137 11.4022 5.27441C11.2415 5.43513 11.048 5.51548 10.8218 5.51548C10.5956 5.51548 10.4022 5.43513 10.2415 5.27441C10.0807 5.1137 10.0004 4.92025 10.0004 4.69406C10.0004 4.46787 10.0807 4.27441 10.2415 4.1137C10.4022 3.95298 10.5956 3.87263 10.8218 3.87263C11.048 3.87263 11.2415 3.95298 11.4022 4.1137ZM7.84413 2.72531C7.84413 2.72531 7.74071 2.72605 7.53387 2.72754C7.32702 2.72903 7.20276 2.72977 7.1611 2.72977C7.11943 2.72977 6.89175 2.72828 6.47806 2.72531C6.06437 2.72233 5.75038 2.72233 5.5361 2.72531C5.32181 2.72828 5.03461 2.73721 4.67449 2.75209C4.31437 2.76697 4.00782 2.79673 3.75485 2.84138C3.50187 2.88602 3.28907 2.94108 3.11646 3.00656C2.81884 3.1256 2.55693 3.29822 2.33074 3.52441C2.10455 3.7506 1.93193 4.01251 1.81288 4.31013C1.74741 4.48275 1.69235 4.69554 1.64771 4.94852C1.60306 5.2015 1.5733 5.50804 1.55842 5.86816C1.54354 6.22828 1.53461 6.51548 1.53163 6.72977C1.52866 6.94406 1.52866 7.25804 1.53163 7.67174C1.53461 8.08543 1.5361 8.3131 1.5361 8.35477C1.5361 8.39644 1.53461 8.62412 1.53163 9.03781C1.52866 9.4515 1.52866 9.76549 1.53163 9.97977C1.53461 10.1941 1.54354 10.4813 1.55842 10.8414C1.5733 11.2015 1.60306 11.508 1.64771 11.761C1.69235 12.014 1.74741 12.2268 1.81288 12.3994C1.93193 12.697 2.10455 12.9589 2.33074 13.1851C2.55693 13.4113 2.81884 13.5839 3.11646 13.703C3.28907 13.7685 3.50187 13.8235 3.75485 13.8682C4.00782 13.9128 4.31437 13.9426 4.67449 13.9574C5.03461 13.9723 5.32181 13.9813 5.5361 13.9842C5.75038 13.9872 6.06437 13.9872 6.47806 13.9842C6.89175 13.9813 7.11943 13.9798 7.1611 13.9798C7.20276 13.9798 7.43044 13.9813 7.84413 13.9842C8.25782 13.9872 8.57181 13.9872 8.7861 13.9842C9.00038 13.9813 9.28759 13.9723 9.64771 13.9574C10.0078 13.9426 10.3144 13.9128 10.5673 13.8682C10.8203 13.8235 11.0331 13.7685 11.2057 13.703C11.5034 13.5839 11.7653 13.4113 11.9915 13.1851C12.2176 12.9589 12.3903 12.697 12.5093 12.3994C12.5748 12.2268 12.6298 12.014 12.6745 11.761C12.7191 11.508 12.7489 11.2015 12.7638 10.8414C12.7787 10.4813 12.7876 10.1941 12.7906 9.97977C12.7935 9.76549 12.7935 9.4515 12.7906 9.03781C12.7876 8.62412 12.7861 8.39644 12.7861 8.35477C12.7861 8.3131 12.7876 8.08543 12.7906 7.67174C12.7935 7.25804 12.7935 6.94406 12.7906 6.72977C12.7876 6.51548 12.7787 6.22828 12.7638 5.86816C12.7489 5.50804 12.7191 5.2015 12.6745 4.94852C12.6298 4.69554 12.5748 4.48275 12.5093 4.31013C12.3903 4.01251 12.2176 3.7506 11.9915 3.52441C11.7653 3.29822 11.5034 3.1256 11.2057 3.00656C11.0331 2.94108 10.8203 2.88602 10.5673 2.84138C10.3144 2.79673 10.0078 2.76697 9.64771 2.75209C9.28759 2.73721 9.00038 2.72828 8.7861 2.72531C8.57181 2.72233 8.25782 2.72233 7.84413 2.72531ZM13.9736 5.52441C14.0034 6.04822 14.0182 6.99168 14.0182 8.35477C14.0182 9.71787 14.0034 10.6613 13.9736 11.1851C13.9141 12.4232 13.545 13.3816 12.8665 14.0601C12.1879 14.7387 11.2296 15.1077 9.99146 15.1673C9.46765 15.197 8.52419 15.2119 7.1611 15.2119C5.798 15.2119 4.85455 15.197 4.33074 15.1673C3.09265 15.1077 2.13431 14.7387 1.45574 14.0601C0.777169 13.3816 0.408122 12.4232 0.348598 11.1851C0.318836 10.6613 0.303955 9.71787 0.303955 8.35477C0.303955 6.99168 0.318836 6.04822 0.348598 5.52441C0.408122 4.28632 0.777169 3.32798 1.45574 2.64941C2.13431 1.97084 3.09265 1.60179 4.33074 1.54227C4.85455 1.51251 5.798 1.49763 7.1611 1.49763C8.52419 1.49763 9.46765 1.51251 9.99146 1.54227C11.2296 1.60179 12.1879 1.97084 12.8665 2.64941C13.545 3.32798 13.9141 4.28632 13.9736 5.52441Z" fill="white"/>
</g>
<defs>
<clipPath id="clip0_298_5870">
<rect width="13.72" height="16" fill="white" transform="matrix(1 0 0 -1 0.300049 16.3545)"/>
</clipPath>
</defs>
</svg>
