<svg width="18" height="17" viewBox="0 0 18 17" fill="none" xmlns="http://www.w3.org/2000/svg">
<path d="M5.44857 8.35449C4.48429 8.38425 3.6956 8.76521 3.0825 9.49735H1.88607C1.39798 9.49735 0.987264 9.37681 0.653931 9.13574C0.320597 8.89467 0.153931 8.54199 0.153931 8.07771C0.153931 5.97652 0.522978 4.92592 1.26107 4.92592C1.29679 4.92592 1.42625 4.98842 1.64947 5.11342C1.87268 5.23842 2.16286 5.36491 2.52 5.49288C2.87715 5.62086 3.23131 5.68485 3.5825 5.68485C3.98131 5.68485 4.37715 5.6164 4.77 5.47949C4.74024 5.69973 4.72536 5.89616 4.72536 6.06878C4.72536 6.89616 4.96643 7.65806 5.44857 8.35449ZM15.0111 14.042C15.0111 14.7563 14.7938 15.3203 14.3593 15.734C13.9248 16.1476 13.3474 16.3545 12.6271 16.3545H4.82357C4.10334 16.3545 3.52595 16.1476 3.09143 15.734C2.65691 15.3203 2.43965 14.7563 2.43965 14.042C2.43965 13.7265 2.45006 13.4185 2.4709 13.1179C2.49173 12.8173 2.5334 12.4929 2.5959 12.1447C2.6584 11.7965 2.73726 11.4735 2.8325 11.1759C2.92774 10.8783 3.05572 10.5881 3.21643 10.3054C3.37715 10.0226 3.56167 9.78158 3.77 9.58217C3.97834 9.38277 4.2328 9.22354 4.5334 9.10449C4.83399 8.98544 5.16584 8.92592 5.52893 8.92592C5.58845 8.92592 5.71643 8.98991 5.91286 9.11788C6.10929 9.24586 6.32655 9.38872 6.56465 9.54646C6.80274 9.70419 7.12119 9.84705 7.52 9.97503C7.91881 10.103 8.3206 10.167 8.72536 10.167C9.13012 10.167 9.53191 10.103 9.93072 9.97503C10.3295 9.84705 10.648 9.70419 10.8861 9.54646C11.1242 9.38872 11.3414 9.24586 11.5379 9.11788C11.7343 8.98991 11.8623 8.92592 11.9218 8.92592C12.2849 8.92592 12.6167 8.98544 12.9173 9.10449C13.2179 9.22354 13.4724 9.38277 13.6807 9.58217C13.8891 9.78158 14.0736 10.0226 14.2343 10.3054C14.395 10.5881 14.523 10.8783 14.6182 11.1759C14.7135 11.4735 14.7923 11.7965 14.8548 12.1447C14.9173 12.4929 14.959 12.8173 14.9798 13.1179C15.0007 13.4185 15.0111 13.7265 15.0111 14.042ZM5.19857 1.02413C5.19857 1.02413 5.31018 1.13574 5.5334 1.35896C5.75661 1.58217 5.86822 2.00925 5.86822 2.64021C5.86822 3.27116 5.645 3.80985 5.19857 4.25628C4.75215 4.70271 4.21345 4.92592 3.5825 4.92592C2.95155 4.92592 2.41286 4.70271 1.96643 4.25628C1.52 3.80985 1.29679 3.27116 1.29679 2.64021C1.29679 2.00925 1.52 1.47056 1.96643 1.02413C2.41286 0.577705 2.95155 0.354492 3.5825 0.354492C4.21345 0.354492 4.75215 0.577705 5.19857 1.02413ZM11.1495 3.64467C11.1495 3.64467 11.3169 3.81208 11.6517 4.1469C11.9865 4.48172 12.1539 5.12235 12.1539 6.06878C12.1539 7.01521 11.8191 7.82324 11.1495 8.49288C10.4798 9.16253 9.67179 9.49735 8.72536 9.49735C7.77893 9.49735 6.9709 9.16253 6.30125 8.49288C5.63161 7.82324 5.29679 7.01521 5.29679 6.06878C5.29679 5.12235 5.63161 4.31431 6.30125 3.64467C6.9709 2.97503 7.77893 2.64021 8.72536 2.64021C9.67179 2.64021 10.4798 2.97503 11.1495 3.64467ZM17.2968 8.07771C17.2968 8.54199 17.1301 8.89467 16.7968 9.13574C16.4635 9.37681 16.0527 9.49735 15.5646 9.49735H14.3682C13.7551 8.76521 12.9664 8.38425 12.0021 8.35449C12.4843 7.65806 12.7254 6.89616 12.7254 6.06878C12.7254 5.89616 12.7105 5.69973 12.6807 5.47949C13.0736 5.6164 13.4694 5.68485 13.8682 5.68485C14.2194 5.68485 14.5736 5.62086 14.9307 5.49288C15.2879 5.36491 15.578 5.23842 15.8013 5.11342C16.0245 4.98842 16.1539 4.92592 16.1896 4.92592C16.9277 4.92592 17.2968 5.97652 17.2968 8.07771ZM15.4843 1.02413C15.4843 1.02413 15.5959 1.13574 15.8191 1.35896C16.0423 1.58217 16.1539 2.00925 16.1539 2.64021C16.1539 3.27116 15.9307 3.80985 15.4843 4.25628C15.0379 4.70271 14.4992 4.92592 13.8682 4.92592C13.2373 4.92592 12.6986 4.70271 12.2521 4.25628C11.8057 3.80985 11.5825 3.27116 11.5825 2.64021C11.5825 2.00925 11.8057 1.47056 12.2521 1.02413C12.6986 0.577705 13.2373 0.354492 13.8682 0.354492C14.4992 0.354492 15.0379 0.577705 15.4843 1.02413Z" fill="white"/>
</svg>
